<svg width="126" height="48" viewBox="0 0 126 48" fill="none" xmlns="http://www.w3.org/2000/svg">
<g clip-path="url(#clip0_44946_16833)">
<path d="M27.3249 6.97498C27.3249 7.55831 27.2166 8.12493 27 8.67501C26.7833 9.20829 26.6249 9.7583 26.5249 10.3249C26.1583 10.8083 25.8166 11.3083 25.5 11.8249C25.1833 12.3417 24.8583 12.8583 24.5249 13.375C24.1917 13.8917 23.8417 14.3917 23.475 14.875C23.1083 15.3417 22.6917 15.7666 22.2249 16.15C22.2417 16.1666 22.25 16.2 22.25 16.25C22.25 16.35 22.2 16.4333 22.1 16.5C22.0166 16.55 21.9917 16.6166 22.0249 16.7C21.6083 17.1333 21.2 17.5583 20.8 17.975C20.4 18.3917 20.0333 18.8583 19.7 19.375C19.3333 19.5583 19.0333 19.8583 18.8 20.275C18.7 20.275 18.6249 20.3 18.575 20.35C18.5249 20.3833 18.4583 20.4166 18.375 20.45C17.8417 21.1 17.2833 21.7166 16.7 22.3C16.1166 22.8833 15.4917 23.4166 14.8249 23.9C14.575 24.0833 14.3249 24.25 14.075 24.4C13.8249 24.55 13.5833 24.7083 13.35 24.875C13.2 24.975 13.05 25.0917 12.9 25.2249C12.7666 25.3583 12.6249 25.4833 12.475 25.6C11.9917 26.0166 11.5166 26.3666 11.05 26.65C10.5833 26.9166 10.0333 27.1 9.39998 27.2C9.34998 27.3833 9.32494 27.5833 9.32494 27.8V28.4C9.32494 28.6 9.31662 28.8083 9.29998 29.0249C9.28334 29.2249 9.22494 29.4166 9.12494 29.6V29.675C9.12494 29.8417 9.16662 30 9.24998 30.15C9.33334 30.3166 9.37502 30.4833 9.37502 30.65C9.37502 30.7666 9.31662 30.8666 9.19998 30.95H9.84998C9.84998 31.1833 9.91662 31.3833 10.05 31.55C10.2 31.7166 10.275 31.8417 10.275 31.9249C10.275 32.2083 10.2417 32.5166 10.175 32.85C10.1249 33.2 9.9583 33.4333 9.67502 33.55V33.7C9.67502 33.8666 9.6583 34.0249 9.62494 34.175C9.59166 34.3417 9.51662 34.5 9.39998 34.65C9.29998 34.65 9.19998 34.65 9.09998 34.65C9.01662 34.6666 8.93334 34.675 8.84998 34.675C8.14998 34.675 7.52498 34.5083 6.97498 34.175C6.79164 33.7417 6.66664 33.2917 6.59998 32.8249C6.54998 32.375 6.52498 31.9166 6.52498 31.45C6.52498 30.5333 6.59164 29.6249 6.72498 28.7249C6.85831 27.8249 6.96664 26.9249 7.04998 26.0249L7.42498 25.3C7.45831 24.8333 7.51664 24.3666 7.59998 23.9C7.68331 23.4166 7.76664 22.9417 7.84998 22.475C7.93331 22.0083 7.99998 21.5417 8.04998 21.075C8.11662 20.6083 8.14166 20.1417 8.12494 19.675C8.2583 19.3917 8.34998 19.0917 8.39998 18.775C8.46662 18.4583 8.49998 18.15 8.49998 17.85C8.49998 17.6833 8.49166 17.5166 8.47502 17.35C8.4583 17.1833 8.4083 17.0249 8.32494 16.875C8.42494 16.8083 8.49166 16.7249 8.52494 16.6249C8.5583 16.5249 8.6083 16.4333 8.67502 16.35C8.72494 15.7 8.76662 15.0583 8.79998 14.4249C8.83334 13.775 8.84998 13.1333 8.84998 12.5C8.84998 12.15 8.84166 11.8083 8.82494 11.475C8.8083 11.1249 8.78334 10.775 8.74998 10.4249C8.73334 10.2917 8.69998 10.1333 8.64998 9.94998C8.61662 9.76661 8.59998 9.62494 8.59998 9.52494C8.59998 9.39165 8.6083 9.2583 8.62494 9.12494C8.64166 8.97502 8.64998 8.82493 8.64998 8.67501C8.64998 8.50829 8.63334 8.34998 8.59998 8.19998C8.56662 8.03334 8.5083 7.88331 8.42494 7.74998C7.62498 7.98331 6.90831 8.29997 6.27498 8.69998C5.64164 9.08333 4.99998 9.51661 4.34998 9.99998C4.08331 10.1833 3.79164 10.4 3.47498 10.65C3.15831 10.9 2.85831 11.0917 2.57498 11.2249C2.52498 11.2583 2.46664 11.2833 2.39998 11.3C2.31664 11.3 2.24998 11.3 2.19998 11.3C2.01664 11.3 1.84998 11.2917 1.69998 11.275C1.54998 11.2417 1.39998 11.2249 1.24998 11.2249C1.01664 10.9917 0.741642 10.8083 0.424976 10.675C0.374976 10.475 0.349976 10.2583 0.349976 10.0249C0.349976 9.79166 0.374976 9.56662 0.424976 9.34997C0.458309 9.13334 0.516642 8.91662 0.599976 8.69998C0.799976 8.63334 1.01664 8.55829 1.24998 8.47501C1.46664 8.39165 1.68331 8.29997 1.89998 8.19998C2.09998 8.08333 2.28331 7.95831 2.44998 7.82498C2.61664 7.67498 2.74998 7.49164 2.84998 7.27498C2.94998 7.32498 3.04164 7.34998 3.12498 7.34998C3.20831 7.34998 3.28331 7.34164 3.34998 7.32498C3.41664 7.30831 3.49164 7.29164 3.57498 7.27498C3.87498 7.09164 4.17498 6.89998 4.47498 6.69998C4.79164 6.49998 5.11664 6.33331 5.44998 6.19998C5.54998 6.16664 5.60831 6.12498 5.62498 6.07498C5.64164 6.02498 5.64164 5.94998 5.62498 5.84998C6.00831 5.73331 6.40831 5.59998 6.82498 5.44998C7.24164 5.28331 7.59164 5.05831 7.87498 4.77498H8.32494C8.57502 4.59164 8.84166 4.44164 9.12494 4.32498C9.4083 4.20831 9.69166 4.09998 9.97502 3.99998C10.275 3.88331 10.5666 3.76664 10.85 3.64998C11.1333 3.51664 11.4 3.34998 11.65 3.14998C11.75 3.11664 11.8333 3.09998 11.9 3.09998C11.9833 3.09998 12.075 3.11664 12.175 3.14998C12.3417 3.06664 12.4833 2.96664 12.6 2.84998L13 2.44998C13.2666 2.44998 13.5083 2.42498 13.7249 2.37498C13.9417 2.32498 14.15 2.25831 14.35 2.17498C14.55 2.09164 14.7417 1.99998 14.9249 1.89998C15.1249 1.78331 15.3417 1.66664 15.575 1.54998C15.675 1.58331 15.75 1.62498 15.8 1.67498C15.85 1.70831 15.9333 1.72498 16.05 1.72498C16.2166 1.60831 16.3917 1.52498 16.575 1.47498C16.775 1.40831 16.975 1.35831 17.175 1.32498C17.375 1.29164 17.5666 1.24998 17.75 1.19998C17.95 1.14998 18.1249 1.05831 18.275 0.924976C18.8083 0.924976 19.3417 0.91664 19.875 0.899976C20.4249 0.86664 20.9666 0.849976 21.5 0.849976C22.2666 0.849976 23.0417 0.908312 23.8249 1.02498C24.6249 1.14164 25.3417 1.43331 25.975 1.89998C26.2249 2.49998 26.5833 3.00831 27.05 3.42498C27.0833 3.60831 27.1166 3.78331 27.15 3.94998C27.2 4.09998 27.2583 4.24998 27.3249 4.39998C27.2083 4.64998 27.15 4.92498 27.15 5.22498C27.15 5.52498 27.175 5.82498 27.2249 6.12498C27.2917 6.40831 27.3249 6.69164 27.3249 6.97498ZM25 6.37498C24.9166 6.22498 24.8583 6.05831 24.8249 5.87498C24.8083 5.67498 24.8083 5.48331 24.8249 5.29998C24.6083 5.13331 24.4417 4.91664 24.3249 4.64998C24.2083 4.38331 24.0417 4.18331 23.8249 4.04998C23.675 3.96664 23.4583 3.91664 23.175 3.89998C22.9083 3.88331 22.6833 3.84998 22.5 3.79998C22.2833 3.73331 22.1333 3.66664 22.05 3.59998C21.9833 3.53331 21.8333 3.49998 21.6 3.49998C21.4 3.49998 21.2 3.52498 21 3.57498C20.8 3.60831 20.6 3.62498 20.4 3.62498C20.2333 3.62498 20.075 3.59164 19.9249 3.52498C19.775 3.45831 19.6166 3.42498 19.45 3.42498C19.2666 3.42498 19.0917 3.48331 18.9249 3.59998C18.775 3.71664 18.5917 3.74998 18.375 3.69998C18.275 3.78331 18.2166 3.84998 18.2 3.89998C18.2 3.94998 18.1917 3.99164 18.175 4.02498C18.1583 4.04164 18.1166 4.04998 18.05 4.04998H17.7C17.35 4.04998 16.9917 4.09998 16.6249 4.19998C16.275 4.29998 15.9583 4.46664 15.675 4.69998C15.6249 4.68331 15.575 4.67498 15.5249 4.67498C15.4917 4.65831 15.45 4.64998 15.4 4.64998C15.1166 4.64998 14.8417 4.73331 14.575 4.89998C14.3249 5.04998 14.0417 5.12498 13.7249 5.12498C13.5249 5.32498 13.2833 5.48331 13 5.59998C12.7166 5.71664 12.4249 5.83331 12.1249 5.94998C11.8417 6.04998 11.575 6.17498 11.3249 6.32498C11.075 6.45831 10.8833 6.65831 10.75 6.92498C10.7333 7.05831 10.775 7.14164 10.875 7.17498C10.975 7.20831 11.0249 7.29164 11.0249 7.42498C11.0249 7.54164 11 7.68331 10.95 7.84998C10.9166 8.01662 10.9 8.18334 10.9 8.34998C10.9 8.73334 10.9417 9.10829 11.0249 9.47501C11.1083 9.84165 11.1917 10.2166 11.275 10.6C11.1917 10.65 11.1333 10.7249 11.1 10.8249C11.0666 10.9249 11.0083 11 10.9249 11.05C11.1583 11.75 11.275 12.4666 11.275 13.2C11.275 13.7833 11.2083 14.3583 11.075 14.9249C10.9583 15.475 10.875 16.0417 10.8249 16.6249V16.65C10.8249 16.75 10.8583 16.8166 10.9249 16.85C10.9917 16.8833 11.0249 16.9417 11.0249 17.0249C11.0249 17.075 11.0166 17.1166 11 17.15C10.8166 18.2833 10.6333 19.4166 10.45 20.55C10.2833 21.6833 10.1417 22.8249 10.0249 23.975H10.2249C10.6583 23.975 11.0417 23.85 11.375 23.6C11.7249 23.3333 12.0166 23.0417 12.25 22.7249H12.65C13.85 21.675 15 20.5917 16.1 19.475C17.2166 18.3583 18.275 17.1583 19.275 15.875C19.4083 15.875 19.5 15.8417 19.55 15.775C19.6 15.7083 19.6833 15.6583 19.8 15.6249C20.15 15.1417 20.5166 14.6666 20.9 14.2C21.2833 13.7166 21.7 13.2583 22.15 12.8249C22.1666 12.6583 22.2083 12.5083 22.275 12.375C22.3583 12.2417 22.4417 12.1166 22.5249 12C22.6083 11.8833 22.6833 11.7583 22.75 11.6249C22.8166 11.4917 22.85 11.3333 22.85 11.15C22.9333 11.1166 23.0249 11.0833 23.1249 11.05C23.2249 11 23.3166 10.9333 23.4 10.85C23.4333 10.6833 23.4917 10.5333 23.575 10.4C23.6583 10.2666 23.7 10.1166 23.7 9.94998C23.7 9.88334 23.6833 9.79998 23.65 9.69998C23.9166 9.58333 24.1249 9.39165 24.275 9.12494C24.4249 8.8583 24.5417 8.56662 24.6249 8.24998C24.7083 7.91664 24.7666 7.58331 24.8 7.24998C24.85 6.91664 24.9166 6.62498 25 6.37498ZM39.5 23.175C39.5 23.3583 39.4333 23.5 39.3 23.6C39.1666 23.6833 39.1 23.8 39.1 23.95C39.1 24.0166 39.1333 24.1 39.2 24.2C38.9666 24.2 38.8083 24.275 38.7249 24.4249C38.6417 24.575 38.5583 24.7417 38.475 24.9249H38.15C38.0666 24.9249 38 24.9417 37.95 24.975C37.9 25.0083 37.85 25.0583 37.8 25.1249C37.7666 25.175 37.7166 25.2583 37.65 25.375C37.3333 25.4417 37.0249 25.55 36.7249 25.7C36.4417 25.8333 36.1583 25.9833 35.875 26.15C35.6083 26.3 35.3333 26.4583 35.05 26.6249C34.7666 26.775 34.475 26.9 34.175 27C34.0249 27.25 33.8083 27.45 33.5249 27.6H33.45C33.3666 27.6166 33.2917 27.6083 33.2249 27.575C33.175 27.5249 33.1083 27.5 33.0249 27.5C32.975 27.5 32.9417 27.5083 32.9249 27.5249C32.4249 27.8583 31.8666 28.0249 31.25 28.0249C31.0833 28.0249 30.9249 28.0166 30.775 28C30.6249 27.9666 30.4666 27.95 30.3 27.95C30.25 27.95 30.2166 27.9666 30.2 28L30.15 28.1C30.1333 28.1333 30.1083 28.1666 30.075 28.2C30.0583 28.2333 30 28.25 29.9 28.25C29.7166 28.25 29.5333 28.2249 29.35 28.175C29.1666 28.1249 28.975 28.1166 28.775 28.15C28.3917 27.9333 28.0917 27.7249 27.875 27.5249C27.6583 27.3249 27.4583 27.0249 27.275 26.6249C27.1917 26.4417 27.075 26.2666 26.9249 26.1C26.7917 25.9333 26.6917 25.75 26.6249 25.55C26.6083 25.4833 26.5833 25.3666 26.55 25.2C26.5166 25.0166 26.4833 24.8249 26.45 24.6249C26.4166 24.4249 26.3833 24.2333 26.35 24.05C26.3333 23.8666 26.3249 23.7417 26.3249 23.675C26.3249 23.475 26.3333 23.2833 26.35 23.1C26.3833 22.9 26.4166 22.7 26.45 22.5C26.55 21.8666 26.6166 21.2333 26.65 20.6C26.7 19.95 26.8417 19.3249 27.075 18.7249C27.0417 18.5417 27.0249 18.3666 27.0249 18.2V17.65C27.0249 17.3333 26.9833 17.0666 26.9 16.85C27.0333 16.6333 27.1 16.3917 27.1 16.1249C27.1 15.8249 26.975 15.65 26.7249 15.6V15.5249C26.7249 15.175 26.6083 14.9 26.375 14.7C26.375 14.1166 26.5166 13.6833 26.8 13.4C27.1 13.1 27.4917 12.8417 27.975 12.6249C28.0417 12.5249 28.0666 12.4417 28.05 12.375C28.1666 12.4083 28.275 12.4417 28.375 12.475C28.475 12.5083 28.575 12.5249 28.675 12.5249C28.8417 12.5249 28.9917 12.5 29.1249 12.45C29.175 12.65 29.3 12.775 29.5 12.8249C29.7166 12.8583 29.8917 12.9083 30.0249 12.975V13.3C30.0249 13.8166 30.15 14.3083 30.4 14.775C30.3333 14.9083 30.2917 15.05 30.275 15.2C30.2583 15.35 30.25 15.4917 30.25 15.6249C30.25 15.8249 30.2583 16.0249 30.275 16.2249C30.2917 16.4249 30.3 16.6166 30.3 16.8C30.3 17 30.275 17.2 30.2249 17.4C30.1917 17.6 30.1 17.775 29.95 17.9249C29.9333 18.1417 29.9166 18.3917 29.9 18.675C29.9 18.9417 29.8833 19.2166 29.85 19.5C29.8333 19.7833 29.7917 20.0583 29.7249 20.3249C29.6583 20.5917 29.5583 20.8083 29.4249 20.975C29.4083 21.2249 29.3917 21.4833 29.375 21.75C29.375 22 29.375 22.2417 29.375 22.475C29.375 22.8417 29.3917 23.275 29.4249 23.775C29.475 24.275 29.5917 24.6917 29.775 25.0249C29.8583 25.1583 30.0166 25.2583 30.25 25.3249C30.5 25.3917 30.7 25.4249 30.85 25.4249C31.0333 25.4249 31.2166 25.4 31.4 25.35C31.6 25.2833 31.7417 25.175 31.8249 25.0249C31.9249 25.0417 31.9917 25.0917 32.0249 25.175C32.0583 25.2583 32.1166 25.3249 32.2 25.375C33.15 24.975 34.1 24.5917 35.05 24.2249C36 23.8583 36.9333 23.4333 37.85 22.95C37.9833 23.0166 38.1249 23.05 38.275 23.05C38.4417 23.05 38.6083 23.0333 38.775 23C38.9417 22.9666 39.1083 22.95 39.275 22.95H39.45C39.4833 23.05 39.5 23.1249 39.5 23.175ZM57.9249 27.775C57.875 28.0083 57.7666 28.2 57.6 28.35C57.45 28.4833 57.2666 28.5917 57.05 28.675C56.8333 28.7583 56.6083 28.8166 56.375 28.85C56.1583 28.8666 55.9583 28.875 55.775 28.875C55.6917 28.875 55.6083 28.875 55.5249 28.875C55.4583 28.8583 55.3833 28.85 55.3 28.85C55.2166 28.85 55.175 28.8917 55.175 28.975C55.175 29.0583 55.1333 29.1166 55.05 29.15C54.9666 29.1166 54.8833 29.0917 54.8 29.075C54.7166 29.0583 54.6333 29.05 54.55 29.05C54.4333 29.05 54.3166 29.0583 54.2 29.075C54.1 29.0917 54 29.1 53.9 29.1C53.7666 29.1 53.6666 29.0833 53.6 29.05C53.55 29.0166 53.5 28.9833 53.45 28.95C53.4166 28.9 53.375 28.85 53.3249 28.8C53.2917 28.75 53.2333 28.7083 53.15 28.675C53.0333 28.6249 52.9333 28.6166 52.85 28.65C52.7833 28.6833 52.675 28.6333 52.5249 28.5C52.3249 28.3333 52.15 28.1333 52 27.9C51.8666 27.65 51.7333 27.3917 51.6 27.1249C51.4666 26.8583 51.3249 26.5917 51.175 26.3249C51.0249 26.0583 50.85 25.8249 50.65 25.6249H50.45C50.15 25.6249 49.9417 25.75 49.8249 26C49.7417 25.95 49.6583 25.8917 49.575 25.8249C49.4917 25.7417 49.4 25.675 49.3 25.6249C48.9166 25.7417 48.5166 25.8417 48.1 25.9249C47.6833 26.0083 47.2666 26.05 46.85 26.05H46.5C46.4 26.05 46.2917 26.0333 46.175 26C46.0083 26.0666 45.8583 26.15 45.7249 26.25C45.5917 26.3333 45.4417 26.375 45.275 26.375C45.175 26.375 45.0583 26.3417 44.9249 26.275C44.8249 26.275 44.775 26.3166 44.775 26.4C44.7917 26.4833 44.7417 26.5249 44.6249 26.5249H44.4C44.1666 26.5249 43.9333 26.5333 43.7 26.55C43.4833 26.5666 43.2583 26.575 43.0249 26.575C42.7083 26.575 42.3833 26.5333 42.05 26.45C41.9666 26.5 41.875 26.5249 41.775 26.5249C41.7083 26.5583 41.6583 26.6166 41.6249 26.7C41.5917 26.7666 41.5583 26.8333 41.5249 26.9C41.4917 26.95 41.4417 27 41.375 27.05C41.3249 27.0833 41.25 27.0917 41.15 27.075C41.1166 27.275 41.0333 27.4333 40.9 27.55C40.7666 27.6666 40.7 27.8417 40.7 28.075C40.5166 28.175 40.3666 28.3 40.25 28.45C40.1333 28.6 40.0166 28.7583 39.9 28.9249C39.7833 29.0917 39.6583 29.25 39.5249 29.4C39.4083 29.55 39.2583 29.6666 39.075 29.75C38.9917 29.85 38.9666 30.0083 39 30.2249C38.8166 30.375 38.5917 30.5083 38.3249 30.6249C38.0583 30.7417 37.8083 30.8 37.575 30.8C37.0917 30.8 36.7583 30.5417 36.575 30.0249C36.575 29.8583 36.5917 29.6833 36.6249 29.5C36.6417 29.3 36.675 29.1166 36.7249 28.95C36.775 28.7666 36.85 28.6083 36.95 28.475C37.05 28.3249 37.1917 28.2166 37.375 28.15C37.375 28 37.3249 27.9 37.2249 27.85C37.1249 27.7833 37.0833 27.675 37.1 27.5249C37.55 27.3083 37.9417 27.0249 38.275 26.675C38.6083 26.3249 38.9083 25.9583 39.175 25.575C39.4583 25.175 39.7417 24.775 40.0249 24.375C40.3083 23.975 40.6249 23.6166 40.975 23.3V22.775C41.475 22.2417 41.8 21.6417 41.95 20.975C42.1333 20.9417 42.25 20.8583 42.3 20.7249C42.3666 20.5917 42.4 20.4333 42.4 20.25C42.4833 20.25 42.5333 20.2166 42.55 20.15C42.5833 20.0666 42.6583 20.0417 42.775 20.075C42.9249 19.675 43.0917 19.3083 43.275 18.975C43.4583 18.6417 43.6417 18.3083 43.8249 17.975C44.0083 17.6249 44.1666 17.2666 44.3 16.9C44.45 16.5333 44.5583 16.1249 44.6249 15.675C44.8583 15.6583 44.9833 15.55 45 15.35C45.0333 15.1333 45.0666 14.9417 45.1 14.775C45.35 14.5417 45.5333 14.2666 45.65 13.95C45.7833 13.6333 45.9 13.3083 46 12.975C46.1 12.6249 46.2083 12.2833 46.3249 11.95C46.4583 11.6 46.6417 11.2917 46.875 11.0249V10.95C46.875 10.8666 46.8417 10.8166 46.775 10.8C46.7083 10.7666 46.675 10.7083 46.675 10.6249C46.6917 10.6083 46.7 10.5917 46.7 10.575C46.9 10.4917 47.05 10.3583 47.15 10.175C47.25 9.97501 47.4 9.83333 47.6 9.74998C47.95 10.0333 48.2583 10.2083 48.5249 10.275C48.7917 10.3249 49.1417 10.3666 49.575 10.4C49.7917 10.6333 49.9083 10.9166 49.9249 11.25C49.9583 11.5666 50.0166 11.8833 50.1 12.2C50.2333 12.7333 50.375 13.2583 50.5249 13.775C50.6917 14.275 50.8166 14.7917 50.9 15.3249C50.95 15.6417 51.0417 15.9417 51.175 16.2249C51.3083 16.5083 51.4 16.8 51.45 17.1C51.4833 17.3333 51.4833 17.6 51.45 17.9C51.4166 18.1833 51.45 18.4333 51.55 18.65L51.7249 19.05C51.8083 19.2333 51.875 19.4249 51.9249 19.6249C51.9917 19.8249 52.05 20.0249 52.1 20.2249C52.2333 20.7249 52.35 21.2666 52.45 21.85C52.5666 22.4166 52.7417 22.9333 52.975 23.4C53.0583 23.5666 53.1833 23.6833 53.35 23.75C53.5333 23.8166 53.7333 23.8666 53.95 23.9C54.1666 23.9166 54.375 23.9249 54.575 23.9249C54.7917 23.9083 54.975 23.9 55.1249 23.9H55.375C55.475 23.9 55.575 23.9166 55.675 23.95C55.7417 24.0833 55.775 24.2 55.775 24.3C55.775 24.5 55.7083 24.6583 55.575 24.775C55.4417 24.8917 55.375 25.0249 55.375 25.175C55.375 25.2583 55.4083 25.35 55.475 25.45C55.4083 25.4333 55.3083 25.4249 55.175 25.4249C54.7917 25.4249 54.4166 25.4917 54.05 25.6249C54.1833 25.9083 54.3583 26.15 54.575 26.35C54.8083 26.5333 55.05 26.7083 55.3 26.875C55.4666 26.7417 55.6417 26.675 55.8249 26.675C56.0249 26.675 56.2083 26.7249 56.375 26.8249C56.5583 26.9083 56.75 26.95 56.95 26.95C57.1 26.95 57.2083 26.9249 57.275 26.875C57.4083 27.0249 57.5166 27.1833 57.6 27.35C57.6833 27.5 57.7917 27.6417 57.9249 27.775ZM50.1 23.775C50.0666 23.4917 50.0083 23.2917 49.9249 23.175C49.8583 23.0417 49.8 22.8833 49.75 22.7C49.6833 22.4666 49.6333 22.2166 49.6 21.95C49.5833 21.6833 49.55 21.4249 49.5 21.175C49.3833 20.6083 49.25 20.0417 49.1 19.475C48.9666 18.9083 48.7917 18.3583 48.575 17.8249C48.6417 17.7249 48.675 17.6333 48.675 17.55V17.475C48.5249 17.3083 48.4166 17.1083 48.35 16.875C48.2833 16.6249 48.2166 16.3833 48.15 16.15C48.1 15.9 48.0249 15.675 47.9249 15.475C47.8417 15.2583 47.7 15.0833 47.5 14.95C47.45 15.05 47.4249 15.1666 47.4249 15.3C47.4249 15.4166 47.4333 15.5249 47.45 15.6249C47.4833 15.7249 47.5 15.8333 47.5 15.95C47.3333 16.0333 47.2083 16.1666 47.1249 16.35C47.0583 16.5166 46.9417 16.65 46.775 16.75C46.6417 17.2833 46.45 17.7917 46.2 18.275C45.95 18.7417 45.6833 19.2083 45.4 19.675C45.1333 20.1417 44.875 20.6166 44.6249 21.1C44.375 21.5666 44.175 22.0583 44.0249 22.575C43.8083 22.7249 43.6583 22.9166 43.575 23.15C43.5083 23.3833 43.475 23.6166 43.475 23.85C43.6249 23.9333 43.7917 23.9833 43.975 24C44.175 24 44.3666 24 44.55 24C44.7333 24 44.9083 24.0166 45.075 24.05C45.2417 24.0833 45.3917 24.1666 45.5249 24.3C45.7417 24.2333 45.975 24.1917 46.2249 24.175C46.4917 24.1417 46.7083 24.0666 46.875 23.95C47.2083 24.0666 47.5666 24.1249 47.95 24.1249C48.15 24.1249 48.3417 24.1083 48.5249 24.075C48.7249 24.0417 48.9166 24 49.1 23.95C49.25 23.9833 49.3666 24.0417 49.45 24.1249C49.5333 24.1917 49.6583 24.2166 49.8249 24.2C49.9083 24.1333 49.9583 24.0666 49.975 24C49.9917 23.9166 50.0333 23.8417 50.1 23.775ZM70.95 12.4C70.95 12.55 70.8833 12.675 70.75 12.775C70.6333 12.875 70.575 12.95 70.575 13C70.575 13.1 70.5917 13.175 70.6249 13.2249C70.6583 13.2583 70.675 13.3 70.675 13.35V13.475C70.5083 13.6417 70.3833 13.8249 70.3 14.0249C70.2166 14.2083 70.15 14.4083 70.1 14.6249C70.05 14.8249 70 15.0333 69.95 15.25C69.9166 15.4666 69.8666 15.675 69.8 15.875C69.7166 16.075 69.6083 16.25 69.475 16.4C69.3417 16.5333 69.2333 16.6917 69.15 16.875C69.0166 17.175 68.9166 17.4833 68.85 17.8C68.7833 18.1166 68.6417 18.4083 68.4249 18.675V18.8C68.4083 18.9166 68.4417 19.0166 68.5249 19.1C68.2083 19.5166 67.9583 20.0166 67.775 20.6C67.5917 21.1666 67.4417 21.7666 67.3249 22.4C67.2083 23.0166 67.1083 23.6417 67.0249 24.275C66.9417 24.8917 66.8417 25.45 66.7249 25.95C66.8083 26.3166 66.9333 26.6666 67.1 27C67.2833 27.3166 67.4583 27.65 67.6249 28C67.9583 28.0833 68.275 28.2 68.575 28.35C68.8917 28.5 69.1166 28.7417 69.25 29.075C69.2166 29.4083 69.1083 29.6666 68.9249 29.85C68.7417 30.0333 68.5166 30.2249 68.25 30.4249C68.0666 30.3583 67.9166 30.3 67.8 30.25C67.6833 30.2166 67.5083 30.2166 67.275 30.25C66.9583 30 66.6583 29.8 66.375 29.65C66.1083 29.5 65.8666 29.2417 65.65 28.875C65.6166 28.8249 65.5666 28.8 65.5 28.8H65.275C65.1917 28.6 65.0917 28.3917 64.975 28.175C64.8583 27.9417 64.7417 27.7083 64.6249 27.475C64.5083 27.2249 64.4083 26.9833 64.3249 26.75C64.2417 26.5 64.2 26.275 64.2 26.075C64.2 25.2249 64.275 24.3833 64.4249 23.55C64.5917 22.7 64.675 21.8417 64.675 20.975V20.7249C64.3417 20.8083 64.0083 20.9249 63.675 21.075C63.3583 21.2249 63.0333 21.3417 62.7 21.4249C62.5833 21.4583 62.5166 21.5166 62.5 21.6C62.4833 21.6833 62.4333 21.75 62.35 21.8C62.1833 21.8166 62.0249 21.8333 61.875 21.85C61.7249 21.85 61.5833 21.85 61.45 21.85C61.1666 21.85 60.8666 21.8417 60.55 21.8249C60.25 21.7917 59.95 21.7333 59.65 21.65C59.35 21.5666 59.0666 21.45 58.8 21.3C58.55 21.15 58.3249 20.9583 58.1249 20.7249C58.0917 20.7417 58.05 20.7583 58 20.775C57.95 20.7917 57.9 20.8 57.85 20.8C57.8 20.8 57.75 20.7917 57.7 20.775C57.65 20.7583 57.6083 20.7417 57.575 20.7249C57.4417 20.5417 57.3333 20.3417 57.25 20.1249L57 19.475C56.9166 19.2583 56.8249 19.05 56.7249 18.85C56.6249 18.65 56.4917 18.4666 56.3249 18.3C56.275 18 56.25 17.7083 56.25 17.4249C56.25 17.1249 56.275 16.8333 56.3249 16.55C56.3583 16.2666 56.4166 15.9833 56.5 15.7C56.4333 15.5 56.3917 15.2917 56.375 15.075C56.3417 14.8583 56.3249 14.6417 56.3249 14.4249C56.3249 14.175 56.35 13.9166 56.4 13.65C56.45 13.3833 56.5333 13.1417 56.65 12.9249C56.7666 12.6917 56.9333 12.5 57.15 12.35C57.35 12.2 57.6 12.1249 57.9 12.1249C58.2333 12.1249 58.5417 12.2166 58.8249 12.4C59.1083 12.5666 59.3833 12.7417 59.65 12.9249C59.6833 13.1249 59.7083 13.3249 59.7249 13.5249C59.7417 13.7083 59.75 13.9083 59.75 14.1249C59.75 14.5249 59.7249 14.9333 59.675 15.35C59.6417 15.75 59.6249 16.1583 59.6249 16.575C59.6249 17.0083 59.675 17.4166 59.775 17.8C59.8917 18.1666 60.0917 18.5166 60.375 18.85H60.475C60.6083 18.8333 60.7249 18.8583 60.8249 18.9249C60.9249 18.9917 61.0417 19.0249 61.175 19.0249C61.2917 19.0249 61.3833 18.9833 61.45 18.9C61.5166 18.8 61.6 18.75 61.7 18.75C61.8 18.75 61.875 18.7666 61.9249 18.8C61.975 18.8333 62.0166 18.85 62.05 18.85C62.2333 18.85 62.4417 18.7833 62.675 18.65C62.9083 18.5166 63.0583 18.3666 63.1249 18.2C63.1917 18.25 63.275 18.275 63.375 18.275C63.5083 18.275 63.6333 18.2333 63.75 18.15C63.8666 18.0666 64.0166 18.0249 64.2 18.0249C64.3 18.0249 64.3333 17.9666 64.3 17.85C64.2833 17.7166 64.3166 17.6333 64.4 17.6C64.6 17.5166 64.8166 17.4 65.05 17.25C65.3 17.0833 65.5 16.9833 65.65 16.95C65.7333 16.7333 65.8333 16.5333 65.95 16.35C66.0833 16.15 66.2166 15.9666 66.35 15.8C66.4 15.4166 66.5 15.05 66.65 14.7C66.8 14.35 66.9583 14 67.1249 13.65C67.2917 13.3 67.45 12.95 67.6 12.6C67.75 12.25 67.85 11.8833 67.9 11.5C68.0833 11.3166 68.2249 11.1166 68.3249 10.9C68.4417 10.6833 68.5417 10.4666 68.6249 10.25C68.7917 10.2 69 10.175 69.25 10.175C69.5 10.1583 69.7166 10.15 69.9 10.15H70.3249C70.375 10.25 70.4417 10.3417 70.5249 10.4249L70.775 10.675C70.6249 10.9083 70.55 11.1417 70.55 11.375C70.55 11.5583 70.5917 11.7417 70.675 11.9249C70.7583 12.0917 70.85 12.25 70.95 12.4ZM90.1504 25.1C90.1504 25.2666 90.1 25.4083 90 25.5249C89.9168 25.6249 89.808 25.7166 89.6752 25.8C89.5584 25.8833 89.4336 25.9583 89.3 26.0249C89.1832 26.0917 89.0752 26.175 88.9752 26.275C88.908 26.3417 88.8584 26.4249 88.8248 26.5249C88.808 26.6083 88.7664 26.6666 88.7 26.7C88.6 26.7833 88.492 26.8333 88.3752 26.85C88.2584 26.8666 88.1336 26.8917 88 26.9249C87.8832 26.9417 87.7664 26.975 87.6496 27.0249C87.5336 27.0583 87.4336 27.1333 87.3504 27.25C86.5664 27.3333 85.792 27.4417 85.0248 27.575C84.2752 27.7083 83.5 27.775 82.7 27.775C82.5504 27.775 82.3832 27.7917 82.2 27.8249C82.0336 27.8417 81.8752 27.8583 81.7248 27.875C81.3752 27.9083 81.0248 27.9333 80.6752 27.95C80.3416 27.9666 80 27.975 79.65 27.975C79.1666 27.975 78.6833 27.9583 78.2 27.9249C77.7166 27.875 77.2417 27.8 76.775 27.7C76.6583 27.6166 76.5249 27.55 76.375 27.5C76.2249 27.45 76.0666 27.4 75.9 27.35C75.75 27.3 75.6083 27.2417 75.475 27.175C75.3417 27.1083 75.2417 27.0083 75.175 26.875C74.9249 26.8583 74.7 26.8083 74.5 26.7249C74.3166 26.6417 74.1417 26.55 73.975 26.45C73.8249 26.3333 73.6666 26.2166 73.5 26.1C73.3333 25.9833 73.1417 25.8833 72.9249 25.8C72.7583 25.5666 72.5833 25.3417 72.4 25.1249C72.2333 24.8917 72.0249 24.7 71.775 24.55C71.7249 24.2333 71.6417 23.9166 71.5249 23.6C71.4249 23.2833 71.3166 22.975 71.2 22.675C71.1 22.3583 71.0166 22.0417 70.95 21.7249C70.8666 21.4083 70.8249 21.0833 70.8249 20.75C70.8249 20.5166 70.8583 20.2333 70.9249 19.9C70.9917 19.5666 71.075 19.2333 71.175 18.9C71.2917 18.55 71.4249 18.2249 71.575 17.9249C71.7249 17.6249 71.875 17.3833 72.0249 17.2C72.075 17.15 72.1333 17.1083 72.2 17.075C72.2666 17.0417 72.3249 16.9917 72.375 16.9249C72.5249 16.7583 72.6833 16.6249 72.85 16.5249C73.0166 16.4083 73.1917 16.275 73.375 16.1249C73.4417 16.0583 73.4917 15.9833 73.5249 15.9C73.575 15.8166 73.6417 15.7417 73.7249 15.675C73.775 15.6417 73.8417 15.6333 73.9249 15.65C74.0249 15.6666 74.1083 15.65 74.175 15.6C74.2417 15.55 74.275 15.4917 74.275 15.4249C74.275 15.3583 74.3 15.3 74.35 15.25C74.3666 15.2333 74.4166 15.2333 74.5 15.25C74.5833 15.25 74.6333 15.25 74.65 15.25C74.7666 15.25 74.9 15.175 75.05 15.0249C75.2 14.8583 75.3249 14.75 75.4249 14.7C75.5417 14.6333 75.6583 14.5917 75.775 14.575C75.8917 14.5417 76.0166 14.4917 76.15 14.4249C76.3333 14.3249 76.5083 14.25 76.675 14.2C76.8583 14.1333 77.0417 14.0583 77.2249 13.975C77.3249 13.9417 77.4166 13.8833 77.5 13.8C77.5833 13.7166 77.6666 13.6583 77.75 13.6249C77.9 13.575 78.0583 13.5417 78.2249 13.5249C78.4083 13.4917 78.575 13.4666 78.7249 13.45C78.8917 13.4166 79.05 13.3833 79.2 13.35C79.3666 13.3 79.5166 13.2166 79.65 13.1H79.85C80.1504 13.1 80.4416 13.0583 80.7248 12.975C81.008 12.8917 81.3 12.85 81.6 12.85C81.6832 12.85 81.808 12.8666 81.9752 12.9C82.108 12.8166 82.2584 12.775 82.4248 12.775C82.708 12.775 82.992 12.85 83.2752 13C83.5584 13.1333 83.8496 13.2 84.1504 13.2H84.3C84.3664 13.2 84.4336 13.1917 84.5 13.175C84.6832 13.3583 84.9 13.4583 85.1504 13.475C85.4168 13.4917 85.6416 13.5666 85.8248 13.7C85.9416 13.8 86.0336 13.9166 86.1 14.05C86.1832 14.1833 86.2496 14.3249 86.3 14.475L86.4496 14.9249C86.5 15.075 86.5664 15.2083 86.6496 15.3249C86.5664 15.9249 86.3168 16.4083 85.9 16.775C85.5 17.1249 84.992 17.3 84.3752 17.3C84.1416 17.3 83.9416 17.275 83.7752 17.2249C83.6248 17.1583 83.4832 17.0917 83.3504 17.0249C83.2336 16.9583 83.108 16.8917 82.9752 16.8249C82.8416 16.7583 82.692 16.7083 82.5248 16.675C82.708 16.3417 82.8248 15.9833 82.8752 15.6C82.692 15.5166 82.508 15.4583 82.3248 15.4249C82.1416 15.3917 81.9664 15.3333 81.8 15.25C81.3504 15.3666 80.908 15.45 80.4752 15.5C80.0584 15.5333 79.6666 15.7083 79.3 16.0249C79.2166 16.0083 79.1249 15.9917 79.0249 15.975C78.9417 15.9583 78.8583 15.95 78.775 15.95C78.675 15.95 78.475 16.0249 78.175 16.175C77.875 16.3083 77.55 16.4666 77.2 16.65C76.8666 16.8333 76.5417 17.0166 76.2249 17.2C75.9249 17.3833 75.7166 17.5083 75.6 17.575C75.4666 17.6583 75.35 17.7583 75.25 17.875C75.15 17.9917 75.05 18.1166 74.95 18.25C74.85 18.3666 74.75 18.4833 74.65 18.6C74.55 18.7 74.4249 18.775 74.275 18.8249C74.2417 19.0083 74.1833 19.1666 74.1 19.3C74.0166 19.4333 73.9249 19.575 73.8249 19.7249C73.8083 20.0249 73.775 20.3249 73.7249 20.6249C73.6917 20.9249 73.675 21.2249 73.675 21.5249V21.85C73.675 21.95 73.6917 22.0417 73.7249 22.1249C73.8917 22.3417 74.0249 22.5833 74.1249 22.85C74.2417 23.1166 74.4333 23.3 74.7 23.4C74.7166 23.4666 74.7083 23.5083 74.675 23.5249C74.6583 23.5417 74.6417 23.5833 74.6249 23.65C74.7249 23.8333 74.85 23.9833 75 24.1C75.1666 24.2 75.3333 24.3083 75.5 24.4249C75.6666 24.5249 75.8249 24.6333 75.975 24.75C76.1249 24.8666 76.2417 25.0166 76.3249 25.2C76.575 25.2 76.8083 25.2417 77.0249 25.3249C77.2583 25.4083 77.475 25.5 77.675 25.6C77.8917 25.7 78.0917 25.7917 78.275 25.875C78.475 25.9583 78.675 26 78.875 26C79.0583 26 79.2249 25.975 79.375 25.9249C79.8083 26.0583 80.2416 26.1583 80.6752 26.2249C81.1248 26.275 81.5752 26.3 82.0248 26.3C82.5752 26.3 83.1248 26.2666 83.6752 26.2C84.2248 26.1333 84.7752 26.075 85.3248 26.0249C85.5248 25.9917 85.7168 25.975 85.9 25.975C86.0832 25.975 86.2664 25.9583 86.4496 25.9249C86.6832 25.8917 86.9 25.7833 87.1 25.6C87.3168 25.4166 87.5248 25.2833 87.7248 25.2C87.908 25.3166 88.1248 25.375 88.3752 25.375C88.6584 25.375 88.9336 25.3333 89.2 25.25C89.4664 25.15 89.7416 25.1 90.0248 25.1H90.1504ZM105.525 25.55C105.458 25.8 105.35 26.0083 105.2 26.175C105.05 26.3417 104.875 26.4917 104.675 26.6249C104.492 26.7583 104.292 26.8833 104.075 27C103.858 27.1 103.65 27.2166 103.45 27.35H103.125C102.425 27.35 101.883 27.1833 101.5 26.85C101.134 26.5 100.85 26.075 100.65 25.575C100.45 25.0583 100.3 24.5083 100.2 23.9249C100.117 23.3417 100.008 22.8083 99.8752 22.3249C99.6752 22.4917 99.508 22.6917 99.3752 22.9249C99.2416 23.1417 99.1 23.3583 98.9504 23.575C98.8168 23.7917 98.6584 23.9917 98.4752 24.175C98.308 24.3583 98.0832 24.4833 97.8 24.55C97.7504 24.6666 97.692 24.7833 97.6248 24.9C97.5752 25.0166 97.5416 25.1417 97.5248 25.275C97.1584 25.475 96.8248 25.7083 96.5248 25.975C96.2248 26.2417 95.9248 26.5166 95.6248 26.8C95.3248 27.0833 95.0168 27.3583 94.7 27.6249C94.4 27.875 94.0584 28.0833 93.6752 28.25C93.6584 28.2333 93.6248 28.2249 93.5752 28.2249C93.3752 28.2249 93.192 28.275 93.0248 28.375C92.8584 28.4583 92.6752 28.5 92.4752 28.5C92.3416 28.5 92.2168 28.475 92.1 28.4249C92 28.375 91.892 28.3166 91.7752 28.25C91.6752 28.1833 91.5664 28.1333 91.4496 28.1C91.3336 28.0666 91.208 28.0583 91.0752 28.075C90.908 27.775 90.6832 27.5 90.4 27.25C90.1336 26.9833 89.9664 26.6833 89.9 26.35C89.8664 26.2 89.8416 26.05 89.8248 25.9C89.8248 25.7333 89.808 25.5666 89.7752 25.4C89.7248 25.15 89.6584 24.9 89.5752 24.65C89.492 24.3833 89.4248 24.1166 89.3752 23.85C89.4584 23.4 89.5416 22.9083 89.6248 22.375C89.692 21.8249 89.7752 21.2833 89.8752 20.75C89.992 20.2 90.1416 19.6833 90.3248 19.2C90.5248 18.7 90.7752 18.275 91.0752 17.9249L91.0496 17.75C91.0496 17.4833 91.1 17.2333 91.2 17C91.3 16.7666 91.408 16.5417 91.5248 16.3249C91.6416 16.1083 91.7416 15.8917 91.8248 15.675C91.908 15.4583 91.9248 15.2166 91.8752 14.95C92.0752 14.85 92.2832 14.7666 92.5 14.7C92.7168 14.6333 92.9416 14.6 93.1752 14.6C93.392 14.6 93.592 14.6333 93.7752 14.7C93.7416 14.8333 93.8 14.9166 93.9504 14.95V15.0249C93.9504 15.375 93.908 15.7166 93.8248 16.05C93.7416 16.3833 93.6416 16.7166 93.5248 17.05C93.408 17.3666 93.292 17.6917 93.1752 18.0249C93.0752 18.3417 93 18.6666 92.9504 19C92.8832 19.0166 92.8336 19.05 92.8 19.1C92.7832 19.15 92.7664 19.2 92.7504 19.25C92.7336 19.3 92.708 19.3417 92.6752 19.375C92.6416 19.4083 92.592 19.4249 92.5248 19.4249C92.4248 20.0083 92.3168 20.5917 92.2 21.175C92.1 21.7417 92.0496 22.3166 92.0496 22.9C92.0496 23.25 92.0832 23.6083 92.1504 23.975C92.2168 24.3417 92.3416 24.6917 92.5248 25.0249L92.6248 25C92.808 25 92.9504 25.0417 93.0496 25.1249C93.1664 25.2083 93.3168 25.2917 93.5 25.375C93.6336 25.3417 93.7584 25.3 93.8752 25.25C93.992 25.1833 94.0416 25.075 94.0248 24.9249C94.2416 24.9083 94.4248 24.8583 94.5752 24.775C94.7248 24.675 94.8584 24.5666 94.9752 24.45L95.3504 24.1C95.4832 23.9833 95.6416 23.9 95.8248 23.85C95.8248 23.75 95.8496 23.675 95.9 23.6249L96.0496 23.475C96.1 23.4249 96.1336 23.375 96.1504 23.3249C96.1832 23.2583 96.192 23.1666 96.1752 23.05C96.3752 23.0333 96.5248 22.9833 96.6248 22.9C96.7416 22.8166 96.8416 22.7249 96.9248 22.6249C97.0248 22.5083 97.1168 22.3917 97.2 22.275C97.2832 22.1583 97.392 22.0583 97.5248 21.975C97.6416 21.7249 97.8 21.3917 98 20.975C98.2168 20.5583 98.4248 20.1249 98.6248 19.675C98.8416 19.2249 99.0248 18.8 99.1752 18.4C99.3416 17.9833 99.4248 17.6666 99.4248 17.45C99.4248 17.3666 99.4 17.2917 99.3504 17.2249C99.3168 17.1583 99.308 17.0833 99.3248 17V16.9249C99.4584 16.7583 99.5752 16.575 99.6752 16.375C99.792 16.175 99.908 15.9833 100.025 15.8C100.158 15.6166 100.3 15.45 100.45 15.3C100.6 15.15 100.792 15.0333 101.025 14.95C101.292 15.0333 101.558 15.0917 101.825 15.1249C102.108 15.1583 102.375 15.2249 102.625 15.3249C102.642 15.7417 102.683 16.2249 102.75 16.775C102.817 17.3249 102.934 17.7917 103.1 18.175C103.1 18.3917 103.092 18.6 103.075 18.8C103.075 19 103.075 19.2 103.075 19.4C103.075 19.7333 103.083 20.075 103.1 20.4249C103.134 20.775 103.192 21.1 103.275 21.4C103.158 21.65 103.1 21.9166 103.1 22.2C103.1 22.5833 103.158 22.95 103.275 23.3C103.392 23.6333 103.475 23.9917 103.525 24.375C103.742 24.675 104.025 24.8249 104.375 24.8249C104.458 24.8249 104.525 24.8166 104.575 24.8C104.642 24.7833 104.708 24.7583 104.775 24.7249C104.908 24.875 105.025 25.0249 105.125 25.175C105.242 25.3083 105.375 25.4333 105.525 25.55ZM125.1 11.975C125.1 12.1249 125.066 12.2666 125 12.4L124.825 12.775C124.775 12.8917 124.725 13.0166 124.675 13.15C124.625 13.2833 124.608 13.4417 124.625 13.6249C124.392 13.8917 124.158 14.15 123.925 14.4C123.692 14.65 123.483 14.9333 123.3 15.25C123.117 15.2333 122.975 15.275 122.875 15.375C122.792 15.475 122.725 15.6083 122.675 15.775C122.325 15.8917 122.017 16.075 121.75 16.3249C121.483 16.5583 121.25 16.8166 121.05 17.1C120.166 17.4666 119.342 17.9166 118.575 18.45C117.808 18.9833 117.108 19.6083 116.475 20.3249C116.775 20.3249 117.066 20.3583 117.35 20.4249C117.65 20.4917 117.942 20.5666 118.225 20.65C118.525 20.7166 118.817 20.7833 119.1 20.85C119.383 20.9 119.675 20.9083 119.975 20.875C120.192 21.075 120.434 21.2417 120.7 21.375C120.983 21.5083 121.258 21.6333 121.525 21.75C121.808 21.8666 122.075 22 122.325 22.15C122.592 22.3 122.825 22.4833 123.025 22.7C123.025 22.7333 123.017 22.7666 123 22.8C123 22.8166 123 22.8417 123 22.875C123 23.0083 123.034 23.1417 123.1 23.275C123.166 23.3917 123.2 23.5166 123.2 23.65C123.117 23.7833 123.042 23.9249 122.975 24.075C122.908 24.2249 122.825 24.3583 122.725 24.475C122.642 24.5917 122.542 24.6917 122.425 24.775C122.308 24.8583 122.15 24.9083 121.95 24.9249C121.866 25.2083 121.734 25.4333 121.55 25.6C121.366 25.75 121.158 25.8917 120.925 26.0249C120.708 26.1417 120.492 26.2666 120.275 26.4C120.058 26.5166 119.875 26.675 119.725 26.875C119.225 26.9917 118.734 27.1583 118.25 27.375C117.783 27.575 117.366 27.8666 117 28.25C116.75 28.2833 116.492 28.3249 116.225 28.375C115.975 28.4083 115.725 28.4249 115.475 28.4249C115.125 28.4249 114.842 28.3583 114.625 28.2249C114.408 28.075 114.283 27.8083 114.25 27.4249C114.3 27.3083 114.375 27.2083 114.475 27.1249L114.8 26.875C114.917 26.7917 115.017 26.7083 115.1 26.6249C115.2 26.5249 115.275 26.4083 115.325 26.275C115.358 26.275 115.4 26.2833 115.45 26.3C115.5 26.3 115.55 26.3 115.6 26.3C115.8 26.3 115.958 26.2583 116.075 26.175C116.192 26.0917 116.3 26.0083 116.4 25.9249C116.517 25.8417 116.642 25.7666 116.775 25.7C116.908 25.6333 117.083 25.6083 117.3 25.6249C117.417 25.4083 117.592 25.25 117.825 25.15C118.058 25.0333 118.3 24.9333 118.55 24.85C118.8 24.75 119.034 24.6417 119.25 24.5249C119.483 24.3917 119.642 24.2 119.725 23.95C119.642 23.8166 119.534 23.7166 119.4 23.65C119.266 23.5666 119.117 23.5 118.95 23.45L118.475 23.3C118.325 23.25 118.192 23.1917 118.075 23.1249C117.892 23.175 117.717 23.2 117.55 23.2C117.2 23.2 116.858 23.1666 116.525 23.1C116.192 23.0333 115.85 23 115.5 23C115.183 23 114.908 23.0417 114.675 23.1249C114.592 23.1083 114.5 23.0833 114.4 23.05C114.317 23.0166 114.234 22.9833 114.15 22.95C113.766 23.1 113.366 23.175 112.95 23.175H111.325C111.192 23.175 111.058 23.1917 110.925 23.2249C110.742 23.5583 110.65 23.9166 110.65 24.3C110.65 24.5833 110.692 24.8583 110.775 25.1249C110.858 25.375 110.942 25.6417 111.025 25.9249C111.358 26.2249 111.666 26.5833 111.95 27C112.234 27.4 112.375 27.8417 112.375 28.3249C112.375 28.4417 112.366 28.5333 112.35 28.6C112.183 28.4833 111.966 28.4249 111.7 28.4249C111.466 28.4249 111.242 28.4583 111.025 28.5249C110.825 28.5917 110.608 28.6417 110.375 28.675C110.192 28.5917 110 28.5083 109.8 28.4249C109.6 28.3249 109.408 28.2083 109.225 28.075C109.092 27.7917 108.958 27.5249 108.825 27.275C108.692 27.0083 108.525 26.7583 108.325 26.5249V26.4249C108.325 25.8417 108.275 25.2666 108.175 24.7C108.092 24.1333 108.05 23.5583 108.05 22.975C108.05 22.7083 108.058 22.4417 108.075 22.175C108.108 21.8917 108.192 21.6333 108.325 21.4C108.275 21 108.25 20.5833 108.25 20.15C108.25 19.2833 108.3 18.4166 108.4 17.55C108.5 16.6833 108.55 15.8 108.55 14.9C108.55 14.7166 108.542 14.5333 108.525 14.35C108.525 14.1666 108.517 13.9833 108.5 13.8H108.4C108.183 13.8 107.975 13.8333 107.775 13.9C107.575 13.95 107.375 14.0083 107.175 14.075C106.975 14.1417 106.766 14.2083 106.55 14.275C106.334 14.3249 106.117 14.35 105.9 14.35C105.766 14.4166 105.658 14.4833 105.575 14.55C105.492 14.6166 105.408 14.675 105.325 14.7249C105.242 14.775 105.15 14.8166 105.05 14.85C104.934 14.8833 104.8 14.8917 104.65 14.875C104.466 14.9917 104.325 15.0833 104.225 15.15C104.108 15.2 103.95 15.2583 103.75 15.3249C103.65 15.3583 103.566 15.4083 103.5 15.475L103.3 15.65C103.234 15.7 103.158 15.75 103.075 15.8C102.992 15.85 102.883 15.875 102.75 15.875C102.634 15.875 102.55 15.8666 102.5 15.85C102.4 15.7666 102.317 15.6666 102.25 15.55C102.166 15.4333 102.092 15.3249 102.025 15.2249C101.942 15.1083 101.858 15.0083 101.775 14.9249C101.675 14.8249 101.558 14.75 101.425 14.7C101.492 14.6166 101.525 14.55 101.525 14.5C101.508 14.4333 101.5 14.3583 101.5 14.275C101.5 14.2249 101.508 14.1917 101.525 14.175C101.608 13.875 101.758 13.6417 101.975 13.475C102.192 13.2917 102.434 13.15 102.7 13.05C102.966 12.9333 103.242 12.8333 103.525 12.75C103.792 12.6666 104.042 12.5666 104.275 12.45C104.925 12.4666 105.517 12.4083 106.05 12.275C106.583 12.1249 107.134 11.9166 107.7 11.65C107.8 11.7 107.9 11.7249 108 11.7249C108.083 11.7249 108.166 11.7166 108.25 11.7L108.5 11.65C108.7 11.4833 108.917 11.375 109.15 11.3249C109.383 11.275 109.617 11.2333 109.85 11.2C110.083 11.1666 110.308 11.1333 110.525 11.1C110.742 11.05 110.934 10.9583 111.1 10.8249H111.2C111.6 10.8249 112 10.7583 112.4 10.6249C112.817 10.4917 113.217 10.4417 113.6 10.475C113.934 10.2917 114.242 10.175 114.525 10.1249C114.808 10.075 115.134 10.05 115.5 10.05C115.583 10.05 115.683 10.0166 115.8 9.94998C115.917 9.86662 116.058 9.82493 116.225 9.82493C116.258 9.82493 116.283 9.83333 116.3 9.84997C116.334 9.84997 116.366 9.84997 116.4 9.84997C116.55 9.84997 116.65 9.79998 116.7 9.69998C116.766 9.59997 116.925 9.54998 117.175 9.54998C117.292 9.54998 117.4 9.55829 117.5 9.57502C117.6 9.57502 117.7 9.57502 117.8 9.57502C117.917 9.57502 117.992 9.53333 118.025 9.44998C118.058 9.34997 118.134 9.3083 118.25 9.32493C118.3 9.39165 118.383 9.42494 118.5 9.42494C118.617 9.4083 118.708 9.39997 118.775 9.39997C118.892 9.39997 118.958 9.43334 118.975 9.49998C119.242 9.33333 119.534 9.22493 119.85 9.17501C120.183 9.12494 120.5 9.09997 120.8 9.09997C120.917 9.09997 121.034 9.1083 121.15 9.12494C121.266 9.12494 121.392 9.13334 121.525 9.14997C121.675 9.04998 121.85 8.99998 122.05 8.99998C122.166 8.99998 122.35 9.04998 122.6 9.14997C122.866 9.24998 123.142 9.36662 123.425 9.49998C123.708 9.63334 123.966 9.77502 124.2 9.92494C124.434 10.075 124.575 10.2 124.625 10.3C124.658 10.3333 124.675 10.4083 124.675 10.5249C124.692 10.6417 124.717 10.7417 124.75 10.8249C124.834 11.0249 124.908 11.2166 124.975 11.4C125.058 11.5666 125.1 11.7583 125.1 11.975ZM122.325 12.25C122.325 12.2166 122.317 12.1833 122.3 12.15C122.3 12.1 122.3 12.0583 122.3 12.0249C122.217 11.9249 122.1 11.85 121.95 11.8C121.817 11.75 121.666 11.7083 121.5 11.675C121.35 11.6417 121.192 11.6166 121.025 11.6C120.875 11.5666 120.742 11.5249 120.625 11.475C120.275 11.5917 119.892 11.65 119.475 11.65C119.092 11.65 118.75 11.5917 118.45 11.475C118.3 11.6249 118.108 11.7417 117.875 11.8249C117.642 11.9083 117.392 11.975 117.125 12.0249C116.875 12.0583 116.617 12.0833 116.35 12.1C116.1 12.1 115.875 12.1 115.675 12.1C115.608 12.1 115.492 12.15 115.325 12.25C115.158 12.35 115.008 12.4 114.875 12.4C114.775 12.4 114.683 12.3583 114.6 12.275C114.45 12.3917 114.242 12.4917 113.975 12.575C113.708 12.6583 113.434 12.7333 113.15 12.8C112.866 12.85 112.575 12.9083 112.275 12.975C111.992 13.0417 111.75 13.1083 111.55 13.175C111.35 13.6083 111.242 14.0833 111.225 14.6C111.208 15.1 111.2 15.5917 111.2 16.075C111.2 16.3583 111.183 16.6333 111.15 16.9C111.117 17.1666 111.1 17.4417 111.1 17.7249C111.1 17.8583 111.108 18 111.125 18.15C111.142 18.2833 111.192 18.4166 111.275 18.55C111.142 18.65 111.05 18.7833 111 18.95C110.966 19.1 110.95 19.25 110.95 19.4C110.95 19.5833 110.966 19.75 111 19.9C111.034 20.05 111.066 20.1917 111.1 20.3249C111.634 20.275 112.117 20.175 112.55 20.0249C113 19.875 113.417 19.6917 113.8 19.475C114.2 19.2583 114.583 19.0083 114.95 18.7249C115.317 18.4417 115.7 18.1417 116.1 17.8249C116.266 17.7917 116.4 17.7417 116.5 17.675C116.617 17.6083 116.758 17.575 116.925 17.575C116.992 17.3417 117.117 17.1833 117.3 17.1C117.483 17 117.625 16.8583 117.725 16.675C117.925 16.6249 118.092 16.5583 118.225 16.475C118.375 16.375 118.517 16.2833 118.65 16.2C118.783 16.1 118.925 16.0083 119.075 15.9249C119.242 15.8417 119.425 15.7917 119.625 15.775C119.908 15.4417 120.2 15.1083 120.5 14.775C120.817 14.4417 121.183 14.175 121.6 13.975C121.666 13.8083 121.742 13.6666 121.825 13.55C121.908 13.4166 121.983 13.2917 122.05 13.175C122.134 13.0417 122.2 12.9083 122.25 12.775C122.3 12.6249 122.325 12.45 122.325 12.25Z" fill="white"/>
<path d="M65.1359 37.6725C71.2849 36.1339 86.4791 33.1509 98.0639 33.5274" stroke="#CCA300" stroke-width="2" stroke-linecap="round"/>
<path d="M73.0781 41.9446C79.2732 40.6036 94.5552 38.1084 106.122 38.8554" stroke="#CCA300" stroke-width="2" stroke-linecap="round"/>
</g>
<defs>
<clipPath id="clip0_44946_16833">
<rect width="125.6" height="48" fill="white"/>
</clipPath>
</defs>
</svg>
